<?xml version="1.0" encoding="UTF-8"?>
<svg width="398.73mm" height="227.69mm" version="1.1" viewBox="0 0 1412.8151 806.77878" xmlns="http://www.w3.org/2000/svg">
 <defs>
  <filter id="a" color-interpolation-filters="sRGB">
   <feGaussianBlur result="blur" stdDeviation="6.1 6.1"/>
  </filter>
 </defs>
 <g transform="translate(894.29 -112.28)">
  <rect x="-894.29" y="112.28" width="1412.8" height="806.78" ry=".50171" fill="#fff"/>
  <rect transform="matrix(1.0008 0 0 .9875 .15871 10.785)" x="-773.78" y="195.75" width="1165.7" height="648.52" ry=".52237" fill="#29b6f6" filter="url(#a)"/>
  <path d="m-772.47 221.17 26.657-51.378h162.07l20.615 48.111z" fill="#00acc1" fill-rule="evenodd"/>
  <path d="m-408.9 221.17 26.657-51.378h162.07l20.615 48.111z" fill="#00acc1" fill-rule="evenodd"/>
  <path d="m-590.59 221.17 26.657-51.378h162.07l20.615 48.111z" fill="#4dd0e1" fill-rule="evenodd"/>
  <path d="m-230.33 221.17 26.657-51.378h162.07l20.615 48.111z" fill="#00acc1" fill-rule="evenodd"/>
  <rect x="-773.78" y="195.75" width="1165.7" height="648.52" ry=".52237" fill="#fff"/>
  <rect x="-773.78" y="195.75" width="1165.7" height="62.241" ry=".050134" fill="#80deea"/>
  <rect x="-684.29" y="215.22" width="748.57" height="26.429" ry="4.0494" fill="#fff"/>
  <rect x="83.638" y="215.22" width="257.43" height="26.429" ry="4.0494" fill="#fff"/>
  <rect x="353.35" y="217.04" width="25.921" height="5.2305" ry=".80141" fill="#fff"/>
  <rect x="353.35" y="226.3" width="25.921" height="5.2305" ry=".80141" fill="#fff"/>
  <rect x="353.35" y="234.84" width="25.921" height="5.483" ry=".84011" fill="#fff"/>
  <circle cx="-719.97" cy="228.34" r="14.675" fill="#fff"/>
  <circle cx="-742.35" cy="228.34" r="19.196" fill="#80deea"/>
  <circle cx="-745.45" cy="228.34" r="19.196" fill="#fff"/>
  <path d="m96.304 219c-4.2886 0-7.7655 3.6626-7.7655 8.1803s3.4769 8.1803 7.7655 8.1803c1.6771 0 3.2289-0.56191 4.498-1.5141l4.3211 4.5519c0.4043 0.42595 1.06 0.42595 1.4641 0l0.36652-0.38558c0.3987-0.42265 0.39833-1.1153-8e-3 -1.5407v-5.2e-4l-4.3215-4.5524c0.90598-1.3388 1.4393-2.9719 1.4393-4.7388 0-4.5177-3.4769-8.1803-7.7655-8.1803zm0 2.1825a5.6947 5.9989 0 0 1 5.6947 5.9989 5.6947 5.9989 0 0 1 -5.6947 5.9989 5.6947 5.9989 0 0 1 -5.6942 -5.9989 5.6947 5.9989 0 0 1 5.6942 -5.9989z" fill="#80deea"/>
  <rect transform="matrix(.68848 .72526 -.68848 .72526 0 0)" x="-389.85" y="702.8" width="17.062" height="2.7226" fill="#80deea"/>
  <rect transform="matrix(.68848 -.72526 -.68848 -.72526 0 0)" x="-705.37" y="387.27" width="17.062" height="2.7226" fill="#80deea"/>
  <rect transform="matrix(-.68848 .72526 .68848 .72526 0 0)" x="673.75" y="-360.81" width="12.633" height="2.0159" fill="#80deea"/>
  <rect transform="matrix(-.68848 -.72526 .68848 -.72526 0 0)" x="358.9" y="-675.66" width="12.633" height="2.0159" fill="#80deea"/>
  <rect transform="matrix(-.68848 .72526 .68848 .72526 0 0)" x="116.83" y="196.23" width="12.633" height="2.0159" fill="#80deea"/>
  <rect transform="matrix(-.68848 -.72526 .68848 -.72526 0 0)" x="-198.14" y="-118.74" width="12.633" height="2.0159" fill="#80deea"/>
  <rect x="38.891" y="227.07" width="15.405" height="2.5254" ry=".75761" fill="#80deea"/>
  <rect x="-370.3" y="436.56" width="86.873" height="86.873" ry="10.848" fill="#03a9f4"/>
  <circle cx="-246.83" cy="494.65" r="29.138" fill="#f44336"/>
  <circle cx="-182.69" cy="494.65" r="29.138" fill="#ffca28"/>
  <rect x="-146.55" y="466.86" width="54.043" height="80.812" ry="10.091" fill="#03a9f4"/>
  <rect x="-84.429" y="439.59" width="12.122" height="82.598" ry="0" fill="#4caf50"/>
  <rect x="-63.079" y="466.86" width="54.043" height="55.22" ry="6.8955" fill="#f44336"/>
  <rect x="-348.08" y="453.34" width="76.267" height="17.173" ry="1.5152" fill="#fff"/>
  <rect x="-162.21" y="520.01" width="57.579" height="13.637" ry="1.2033" fill="#fff"/>
  <path d="m184.6 575.3c-18.31 1.0228-36.828-0.091-55.232 0.3142-229.08 0.0627-458.2-0.13235-687.26 0.10767-6.3425 2.0674-2.8976 9.7595-3.6992 14.441 0.20457 14.542-0.49202 29.099 0.35157 43.629 5.1646 5.2156 12.889 0.94798 19.156 2.349 243.62-0.0777 487.24 0.16469 730.86-0.13224 5.9929-3.4617 1.9803-11.119 3.078-16.418-0.16163-13.883 0.50482-27.782-0.34945-41.653-1.7727-1.9106-4.3536-2.7388-6.9121-2.6387z" fill="#80deea"/>
  <rect x="-557.6" y="579.61" width="745.49" height="52.528" ry=".52237" fill="#fff"/>
  <g transform="matrix(.43901 0 0 .46246 35.236 519.16)" fill="#80deea">
   <path d="m318 187c0-1.657-1.343-3-3-3s-3 1.343-3 3c0 12.15-9.85 22-22 22s-22-9.85-22-22c0-1.657-1.343-3-3-3s-3 1.343-3 3c0 14.45 10.947 26.341 25 27.838v5.16h-8c-1.657 0-3 1.343-3 3s1.343 3 3 3h22c1.657 0 3-1.343 3-3s-1.343-3-3-3h-8v-5.162c14.05-1.5 25-13.39 25-27.84z" fill="#80deea"/>
  </g>
  <g transform="matrix(.43901 0 0 .46246 35.236 519.16)" fill="#80deea">
   <path d="m290 154c-9.941 0-18 8.059-18 18v14c0 9.941 8.059 18 18 18s18-8.059 18-18v-14c0-9.94-8.06-18-18-18z" fill="#80deea"/>
  </g>
  <g transform="matrix(.43901 0 0 .46246 35.236 519.16)" fill="#80deea">
   <path d="m272 174h12v-4h-12v4zm0 7h12v-4h-12v4zm0 7h12v-4h-12v4zm24-18v4h12v-4h-12zm0 11h12v-4h-12v4zm0 7h12v-4h-12v4z" fill="#80deea"/>
  </g>
  <rect x="-500.92" y="749.51" width="620" height="22.857" ry=".5371" fill="#80deea"/>
  <rect x="-400.91" y="783.85" width="419.99" height="22.857" ry=".5371" fill="#80deea"/>
 </g>
</svg>
